<svg xmlns="http://www.w3.org/2000/svg" version="1.1" id="svg2" viewBox="0 0 448 192">
<style id="style4">.s0{letter-spacing:0;word-spacing:0}</style>
<g id="logo" word-spacing="0" letter-spacing="0">
	<g id="webdev" font-size="93.7" font-family="Sans" font-weight="600" fill="#ea6153">
		<path id="path3124" d="M.018 9.896V-.032h29.69v9.928h-10.89l11.71 37.33 16.06-47.26h9.06l16.02 47.03 11.8-37.1h-10.84V-.032h29.67v9.928h-7.12l-17.8 53.98v.19h-11.11v-.1l-15.1-43.73-15.19 43.83h-11.07L7.018 9.896h-7"/>
		<path id="path3126" d="M106.2 63.7v-9.93h8.1V9.9h-8.1V-.028h54.3v21.36h-10.1v-10.93h-24.9v16.65H147v10.43h-21.5v15.83h24.9v-10.98h10.1v21.37h-54.3"/>
		<path id="path3128" d="M169 63.7v-9.93h8V9.9h-8V-.028h34.6c6.6 0 11.9 1.479 15.6 4.437 3.8 2.959 5.6 6.925 5.6 11.9 0 3.46-.8 6.48-2.5 9.06-1.7 2.6-4 4.38-6.9 5.36 4 .82 7.1 2.64 9.2 5.44s3.1 6.12 3.1 9.94c0 5.36-2 9.64-6.2 12.84-4.1 3.18-9.7 4.76-16.7 4.76H169m19.3-9.92h16.2c4 0 7-.82 9.1-2.48 2.1-1.68 3.1-3.82 3.1-6.44 0-2.6-.9-4.54-2.8-5.86-1.9-1.34-4.7-2.02-8.4-2.02h-17.2v16.8m0-26.9h14.5c3.8 0 6.7-.76 8.6-2.3s2.8-3.72 2.8-6.48c0-5.46-3.8-8.199-11.4-8.199h-14.5v16.97"/>
		<path id="path3130" d="M232.5 63.7v-9.93h8V9.9h-8V-.028h32c6.4 0 12.1 1.372 17.3 4.117 5.2 2.715 9.2 6.485 12.2 11.3 2.9 4.82 4.4 10.22 4.4 16.2 0 6.06-1.5 11.56-4.4 16.46-3 4.88-7 8.72-12.2 11.5-5.2 2.76-10.9 4.16-17.3 4.16h-32m19.3-10.4h12.7c6.3 0 11.6-2.08 15.9-6.26 4.4-4.18 6.5-9.34 6.5-15.46 0-5.98-2.1-11-6.5-15.06-4.3-4.08-9.6-6.12-15.9-6.12h-12.7v42.9"/>
		<path id="path3132" d="M304.4 63.7v-9.93h8.1V9.9h-8.1V-.028h54.3v21.36h-10.1v-10.93h-24.9v16.65h21.5v10.43h-21.5v15.83h24.9v-10.98h10.1v21.37h-54.3"/>
		<path id="path3134" d="M364.2 9.896V-.032h31.3v9.928h-11l18.1 39.21 18.1-39.21h-11V-.032H441v9.928h-7.5l-25.6 54.17h-10.6l-25.6-54.17h-7.5"/>
	</g>
	<g id="fatec" font-size="130.2" font-family="Sans" font-weight="600" fill="#e0e2e5">
		<path id="path3137" d="M9.503 167.1v-13.8h11.19V92.34H9.503v-13.8h75.53v29.66h-14.05V93.04h-34.65v25.46h33.06V133h-33.06v20.3h14.43v13.8H9.503"/>
		<path id="path3139" d="M79.31 167.1v-13.8h8.77l28.32-60.96h-13v-13.8h34.1l34.6 74.76h9.9v13.8h-39.4v-13.8h13l-6-13.2h-39l-5.9 13.2h11.9v13.8H79.31m37.29-40.2h26.9L130 97.17l-13.4 29.73"/>
		<path id="path3141" d="M176.8 108.2V78.54h82v29.66h-14V93.04h-19.1v60.26h14.8v13.8h-45.4v-13.8H210V93.04h-19.1v15.16h-14.1"/>
		<path id="path3143" d="M269.1 167.1v-13.8h11.2V92.34h-11.2v-13.8h75.4v29.66h-14V93.04H296v23.16h29.8v14.5H296v22h34.5v-15.3h14v29.7h-75.4"/>
		<path id="path3145" d="M358.1 141.3c-2.5-5.8-3.8-11.9-3.8-18.4 0-6.6 1.3-12.7 3.8-18.5 2.5-5.75 5.8-10.62 10-14.61 4.3-4.02 9.2-7.2 14.8-9.53 5.7-2.33 11.6-3.5 17.8-3.5 12.6 0 22.5 3.65 29.8 10.94v-9.16h14.6v34.36h-14.6c-1.7-6.6-5.1-11.8-10.4-15.54-5.3-3.77-11.4-5.66-18.5-5.66-8.7 0-16.1 2.93-22 8.8-5.9 5.8-8.9 13.3-8.9 22.4 0 5.9 1.4 11.3 4.2 16.1 2.7 4.7 6.4 8.4 11.2 11.1 4.7 2.5 9.9 3.8 15.7 3.8 6.9 0 12.8-1.8 17.8-5.6 5.1-3.8 8.4-9 10-15.6h16.1c-1.9 10.9-7 19.7-15.1 26.3-8.2 6.6-17.8 9.9-28.8 9.9-6.4 0-12.4-1.1-18.2-3.5-5.8-2.3-10.8-5.4-15.2-9.4-4.2-4.1-7.7-8.9-10.3-14.7"/>
	</g>
	<g id="fatec-bg" font-size="130.2" font-family="Sans" font-weight="600" fill="#2c3e50">
		<path id="path3148" d="M2.503 161.2v-13.8h11.19V86.44H2.503v-13.8h75.53v29.66h-14.05V87.14h-34.65v25.46h33.06v14.5h-33.06v20.3h14.43v13.8H2.503"/>
		<path id="path3150" d="M72.31 161.2v-13.8h8.77l28.32-60.96h-13v-13.8h34.1l34.6 74.76h9.9v13.8h-39.4v-13.8h13l-6-13.2h-39l-5.86 13.2h11.86v13.8H72.31M109.6 121h26.9L123 91.27 109.6 121"/>
		<path id="path3152" d="M169.8 102.3V72.64h82v29.66h-14V87.14h-19.1v60.26h14.8v13.8h-45.4v-13.8H203V87.14h-19.1v15.16h-14.1"/>
		<path id="path3154" d="M262.1 161.2v-13.8h11.2V86.44h-11.2v-13.8h75.4v29.66h-14V87.14H289v23.16h29.8v14.5H289v22h34.5v-15.3h14v29.7h-75.4"/>
		<path id="path3156" d="M351.1 135.4c-2.5-5.8-3.8-11.9-3.8-18.4 0-6.6 1.3-12.7 3.8-18.48 2.5-5.77 5.8-10.64 10-14.63 4.3-4.02 9.2-7.2 14.8-9.53 5.7-2.33 11.6-3.5 17.8-3.5 12.6 0 22.5 3.65 29.8 10.94v-9.16h14.6V107h-14.6c-1.7-6.6-5.1-11.77-10.4-15.54s-11.4-5.66-18.5-5.66c-8.7 0-16.1 2.93-22 8.77-5.9 5.83-8.9 13.33-8.9 22.43 0 5.9 1.4 11.3 4.2 16.1 2.7 4.7 6.4 8.4 11.2 11.1 4.7 2.5 9.9 3.8 15.7 3.8 6.9 0 12.8-1.8 17.8-5.6 5.1-3.8 8.4-9 10-15.6h16.1c-1.9 10.9-7 19.7-15.1 26.3-8.2 6.6-17.8 9.9-28.8 9.9-6.4 0-12.4-1.1-18.2-3.5-5.8-2.3-10.8-5.4-15.2-9.4-4.2-4.1-7.7-8.9-10.3-14.7"/>
	</g>
	<g id="desc" font-size="45.8" font-family="Open Sans" font-weight="bold" fill="#2c3e50">
		<path id="path3159" d="M8.488 182.3h4.172v5.9c-.65.2-1.31.4-1.98.5s-1.45.2-2.334.2c-1.859 0-3.307-.6-4.342-1.7-1.036-1.1-1.554-2.6-1.554-4.6 0-1.3.255-2.4.764-3.4.515-1 1.254-1.7 2.217-2.2s2.091-.8 3.385-.8c1.314 0 2.534.3 3.664.8l-.56 1.2c-1.11-.4-2.172-.7-3.197-.7-1.494 0-2.662.5-3.502 1.4-.84.8-1.259 2.1-1.259 3.7s.403 2.9 1.209 3.7c.812.9 2.002 1.3 3.569 1.3.851 0 1.68-.1 2.49-.3v-3.8H8.488v-1.2"/>
		<path id="path3161" d="M17.05 183.6v5.1h-1.43v-12.3h3.37c1.5 0 2.61.3 3.33.9s1.08 1.4 1.08 2.6c0 1.6-.82 2.7-2.47 3.3l3.34 5.5h-1.69l-2.97-5.1h-2.56m0-1.2H19c1.01 0 1.75-.2 2.22-.6s.71-1 .71-1.8-.24-1.4-.73-1.8c-.47-.3-1.24-.5-2.3-.5h-1.85v4.7"/>
		<path id="path3163" d="M35.54 176.4v8c0 1.4-.42 2.5-1.27 3.3-.84.8-2.01 1.2-3.48 1.2-1.48 0-2.63-.4-3.44-1.2s-1.21-2-1.21-3.4v-7.9h1.43v8c0 1.1.28 1.8.84 2.4.56.5 1.38.8 2.47.8 1.03 0 1.83-.3 2.39-.8.56-.6.84-1.4.84-2.4v-8h1.43"/>
		<path id="path3165" d="M46.58 180c0 1.2-.42 2.2-1.27 2.9-.85.6-2.06 1-3.64 1h-1.44v4.8H38.8v-12.3h3.18c3.07 0 4.6 1.2 4.6 3.6m-6.35 2.6h1.28c1.27 0 2.18-.2 2.75-.6.56-.4.85-1 .85-1.9 0-.8-.27-1.5-.8-1.8-.53-.4-1.36-.6-2.49-.6h-1.59v4.9"/>
		<path id="path3167" d="M59.8 182.5c0 2-.5 3.6-1.49 4.7s-2.37 1.7-4.14 1.7c-1.81 0-3.21-.6-4.19-1.7s-1.47-2.7-1.47-4.7.49-3.5 1.47-4.6c.99-1.1 2.39-1.7 4.2-1.7 1.77 0 3.15.6 4.14 1.7s1.48 2.7 1.48 4.6m-9.78 0c0 1.7.35 3 1.06 3.8.71.9 1.74 1.3 3.09 1.3 1.36 0 2.39-.4 3.08-1.3.69-.8 1.04-2.1 1.04-3.8 0-1.6-.35-2.9-1.04-3.7-.69-.9-1.71-1.3-3.07-1.3s-2.39.4-3.1 1.3-1.06 2.1-1.06 3.7"/>
		<path id="path3169" d="M76.82 182.4c0 2.1-.55 3.6-1.66 4.7-1.09 1.1-2.68 1.6-4.74 1.6h-3.4v-12.3h3.76c1.91 0 3.39.6 4.45 1.6 1.06 1.1 1.59 2.5 1.59 4.4m-1.51.1c0-1.6-.41-2.8-1.21-3.6s-2-1.2-3.58-1.2h-2.08v9.8h1.74c1.71 0 2.98-.5 3.84-1.3s1.29-2.1 1.29-3.7"/>
		<path id="path3171" d="M86.39 188.7h-6.84v-12.3h6.84v1.3h-5.41v3.9h5.08v1.3h-5.08v4.5h5.41v1.3"/>
		<path id="path3173" d="M100.4 188.7h-6.81v-12.3h6.81v1.3h-5.38v3.9h5.08v1.3h-5.08v4.5h5.38v1.3"/>
		<path id="path3175" d="M110.1 185.4c0 1.1-.4 2-1.2 2.6s-1.8.9-3.2.9-2.6-.2-3.3-.6v-1.4c.5.2 1 .4 1.6.5.6.2 1.2.2 1.8.2.9 0 1.6-.2 2.1-.5.5-.4.7-.9.7-1.5 0-.5 0-.8-.2-1.1-.2-.2-.5-.5-.9-.7-.4-.3-1-.5-1.8-.8-1.1-.4-2-.9-2.4-1.5-.5-.5-.8-1.3-.8-2.2s.4-1.7 1.1-2.2c.7-.6 1.6-.9 2.8-.9s2.4.3 3.4.7l-.5 1.3c-1-.5-2-.7-2.9-.7-.8 0-1.4.2-1.8.5s-.6.8-.6 1.4c0 .4 0 .7.2 1s.4.5.8.8c.4.2.9.4 1.7.7 1.3.5 2.2 1 2.7 1.5.4.5.7 1.2.7 2"/>
		<path id="path3177" d="M116.4 188.7H115v-11h-3.9v-1.3h9.2v1.3h-3.9v11"/>
		<path id="path3179" d="M131.4 176.4v8c0 1.4-.4 2.5-1.3 3.3-.8.8-2 1.2-3.5 1.2-1.4 0-2.6-.4-3.4-1.2s-1.2-2-1.2-3.4v-7.9h1.4v8c0 1.1.3 1.8.9 2.4.5.5 1.3.8 2.4.8s1.9-.3 2.4-.8c.6-.6.9-1.4.9-2.4v-8h1.4"/>
		<path id="path3181" d="M144.4 182.4c0 2.1-.5 3.6-1.6 4.7s-2.7 1.6-4.8 1.6h-3.4v-12.3h3.8c1.9 0 3.4.6 4.5 1.6 1 1.1 1.5 2.5 1.5 4.4m-1.5.1c0-1.6-.4-2.8-1.2-3.6s-2-1.2-3.6-1.2h-2v9.8h1.7c1.7 0 3-.5 3.8-1.3.9-.8 1.3-2.1 1.3-3.7"/>
		<path id="path3183" d="M157.8 182.5c0 2-.5 3.6-1.5 4.7s-2.3 1.7-4.1 1.7-3.2-.6-4.2-1.7-1.5-2.7-1.5-4.7.5-3.5 1.5-4.6 2.4-1.7 4.2-1.7 3.2.6 4.1 1.7c1 1.1 1.5 2.7 1.5 4.6m-9.8 0c0 1.7.4 3 1.1 3.8.7.9 1.7 1.3 3.1 1.3s2.4-.4 3.1-1.3c.7-.8 1-2.1 1-3.8 0-1.6-.3-2.9-1-3.7-.7-.9-1.7-1.3-3.1-1.3-1.3 0-2.4.4-3.1 1.3s-1.1 2.1-1.1 3.7"/>
		<path id="path3185" d="M167.5 185.4c0 1.1-.4 2-1.2 2.6s-1.8.9-3.2.9-2.5-.2-3.3-.6v-1.4c.5.2 1 .4 1.6.5.6.2 1.2.2 1.8.2.9 0 1.7-.2 2.1-.5.5-.4.8-.9.8-1.5 0-.5-.1-.8-.3-1.1-.2-.2-.5-.5-.9-.7-.4-.3-1-.5-1.8-.8-1.1-.4-1.9-.9-2.4-1.5-.5-.5-.8-1.3-.8-2.2s.4-1.7 1.1-2.2c.7-.6 1.7-.9 2.8-.9 1.2 0 2.4.3 3.4.7l-.5 1.3c-1-.5-2-.7-2.9-.7-.8 0-1.4.2-1.8.5s-.6.8-.6 1.4c0 .4.1.7.2 1 .2.3.4.5.8.8.4.2 1 .4 1.7.7 1.3.5 2.2 1 2.7 1.5s.7 1.2.7 2"/>
		<path id="path3187" d="M181.4 185.4c0 1.1-.4 2-1.2 2.6-.7.6-1.8.9-3.2.9s-2.5-.2-3.3-.6v-1.4c.5.2 1 .4 1.6.5.6.2 1.2.2 1.8.2.9 0 1.7-.2 2.1-.5.5-.4.8-.9.8-1.5 0-.5-.1-.8-.3-1.1-.2-.2-.4-.5-.8-.7-.4-.3-1.1-.5-1.9-.8-1.1-.4-1.9-.9-2.4-1.5-.5-.5-.8-1.3-.8-2.2s.4-1.7 1.1-2.2c.7-.6 1.7-.9 2.8-.9 1.3 0 2.4.3 3.4.7l-.4 1.3c-1.1-.5-2-.7-3-.7-.8 0-1.3.2-1.8.5-.4.3-.6.8-.6 1.4 0 .4.1.7.2 1 .2.3.4.5.8.8.4.2 1 .4 1.7.7 1.3.5 2.2 1 2.7 1.5s.7 1.2.7 2"/>
		<path id="path3189" d="M194.6 182.5c0 2-.5 3.6-1.5 4.7s-2.4 1.7-4.2 1.7-3.2-.6-4.1-1.7c-1-1.1-1.5-2.7-1.5-4.7s.5-3.5 1.5-4.6c.9-1.1 2.3-1.7 4.2-1.7 1.7 0 3.1.6 4.1 1.7s1.5 2.7 1.5 4.6m-9.8 0c0 1.7.3 3 1.1 3.8.7.9 1.7 1.3 3 1.3 1.4 0 2.4-.4 3.1-1.3.7-.8 1.1-2.1 1.1-3.8 0-1.6-.4-2.9-1.1-3.7-.7-.9-1.7-1.3-3-1.3-1.4 0-2.4.4-3.1 1.3-.8.9-1.1 2.1-1.1 3.7"/>
		<path id="path3191" d="M197.3 176.4h3.5c1.6 0 2.8.3 3.5.8.8.4 1.1 1.2 1.1 2.3 0 .7-.2 1.3-.6 1.8-.4.4-1 .7-1.8.9v.1c1.9.3 2.8 1.3 2.8 2.9 0 1.1-.3 2-1.1 2.6-.7.6-1.8.9-3.1.9h-4.3v-12.3m1.5 5.3h2.3c1 0 1.7-.2 2.2-.5.4-.3.6-.8.6-1.6 0-.7-.2-1.2-.7-1.5s-1.3-.4-2.3-.4h-2.1v4m0 1.2v4.6h2.5c1 0 1.8-.2 2.3-.6s.7-1 .7-1.8-.3-1.3-.8-1.7c-.5-.3-1.3-.5-2.3-.5h-2.4"/>
		<path id="path3193" d="M209.9 183.6v5.1h-1.4v-12.3h3.3c1.6 0 2.7.3 3.4.9s1.1 1.4 1.1 2.6c0 1.6-.9 2.7-2.5 3.3l3.3 5.5h-1.7l-2.9-5.1h-2.6m0-1.2h2c1 0 1.7-.2 2.2-.6s.7-1 .7-1.8-.3-1.4-.7-1.8c-.5-.3-1.3-.5-2.3-.5h-1.9v4.7"/>
		<path id="path3195" d="M226 188.7h-6.9v-12.3h6.9v1.3h-5.4v3.9h5v1.3h-5v4.5h5.4v1.3"/>
		<path id="path3197" d="M243.2 182.4c0 2.1-.6 3.6-1.7 4.7-1.2 1.1-2.8 1.6-5 1.6H233v-12.3h3.9c2 0 3.5.6 4.7 1.6 1.1 1.1 1.6 2.5 1.6 4.4m-2.7.1c0-2.6-1.2-3.9-3.5-3.9h-1.4v8h1.1c2.6 0 3.8-1.4 3.8-4.1"/>
		<path id="path3199" d="M252.8 188.7h-7v-12.3h7v2.2h-4.4v2.7h4.1v2.1h-4.1v3.2h4.4v2.1"/>
		<path id="path3201" d="M262.7 185.3c0 1.1-.5 2-1.3 2.6-.7.6-1.9 1-3.3 1-1.3 0-2.4-.3-3.5-.8v-2.4c.9.4 1.6.6 2.1.8.6.1 1.1.2 1.6.2.6 0 1-.1 1.3-.3s.5-.6.5-1c0-.2-.1-.4-.2-.6s-.3-.4-.6-.6c-.3-.1-.8-.4-1.6-.8-.7-.4-1.3-.7-1.7-1s-.7-.7-.9-1.1c-.2-.5-.3-1-.3-1.6 0-1 .4-1.9 1.1-2.5s1.7-1 3-1c.7 0 1.3.1 1.9.3.6.1 1.2.3 1.8.6l-.8 2c-.7-.2-1.2-.4-1.7-.5-.4-.1-.8-.2-1.2-.2-.5 0-.9.1-1.2.4-.2.2-.4.5-.4.9 0 .2.1.4.2.6l.5.5c.2.1.8.4 1.7.8 1.1.6 1.9 1.1 2.3 1.7.4.5.7 1.2.7 2"/>
		<path id="path3203" d="M271.9 188.7h-7v-12.3h7v2.2h-4.4v2.7h4.1v2.1h-4.1v3.2h4.4v2.1"/>
		<path id="path3205" d="M285.4 188.7h-3.3l-5.3-9.3h-.1c.1 1.7.1 2.8.1 3.5v5.8h-2.3v-12.3h3.3l5.3 9.2h.1c-.1-1.6-.1-2.7-.1-3.4v-5.8h2.3v12.3"/>
		<path id="path3207" d="M295.5 176.4h2.6l-4.1 12.3h-2.9l-4.2-12.3h2.7l2.3 7.3c.1.5.2 1 .4 1.5.1.6.2 1 .2 1.2.1-.5.3-1.4.7-2.7l2.3-7.3"/>
		<path id="path3209" d="M310.8 182.5c0 2.1-.5 3.6-1.5 4.7s-2.4 1.7-4.3 1.7-3.3-.6-4.4-1.7c-1-1.1-1.5-2.6-1.5-4.7 0-2 .5-3.6 1.5-4.7 1.1-1 2.5-1.6 4.4-1.6s3.3.6 4.3 1.7c1 1 1.5 2.6 1.5 4.6m-8.9 0c0 1.4.2 2.4.7 3.1.6.7 1.3 1.1 2.4 1.1 2.1 0 3.1-1.4 3.1-4.2 0-2.7-1-4.1-3.1-4.1-1 0-1.8.3-2.3 1-.6.7-.8 1.8-.8 3.1"/>
		<path id="path3211" d="M313.4 188.7v-12.3h2.6v10.2h5v2.1h-7.6"/>
		<path id="path3213" d="M330.1 176.4h2.6l-4.1 12.3h-2.9l-4.2-12.3h2.7l2.3 7.3c.1.5.2 1 .4 1.5.1.6.2 1 .2 1.2.1-.5.3-1.4.7-2.7l2.3-7.3"/>
		<path id="path3215" d="M334.3 188.7v-12.3h2.6v12.3h-2.6"/>
		<path id="path3217" d="M345.2 188.7l-3-9.6c.1 1.9.1 3.2.1 3.9v5.7H340v-12.3h3.5l2.9 9.4h.1l3.1-9.4h3.5v12.3h-2.4v-6.8c0-.3 0-1.3.1-2.8h-.1l-3.1 9.6h-2.4"/>
		<path id="path3219" d="M363.3 188.7h-7.1v-12.3h7.1v2.2h-4.5v2.7h4.2v2.1h-4.2v3.2h4.5v2.1"/>
		<path id="path3221" d="M376.8 188.7h-3.4l-5.3-9.3h-.1c.1 1.7.2 2.8.2 3.5v5.8h-2.3v-12.3h3.2l5.4 9.2c0-1.6-.1-2.7-.1-3.4v-5.8h2.4v12.3"/>
		<path id="path3223" d="M384.6 188.7H382v-10.1h-3.4v-2.2h9.3v2.2h-3.3v10.1"/>
		<path id="path3225" d="M401 182.5c0 2.1-.5 3.6-1.6 4.7-1 1.1-2.4 1.7-4.3 1.7s-3.3-.6-4.3-1.7-1.5-2.6-1.5-4.7c0-2 .5-3.6 1.5-4.7 1-1 2.4-1.6 4.3-1.6s3.4.6 4.4 1.7c1 1 1.5 2.6 1.5 4.6m-9 0c0 1.4.3 2.4.8 3.1s1.3 1.1 2.3 1.1c2.1 0 3.1-1.4 3.1-4.2 0-2.7-1-4.1-3.1-4.1-1 0-1.8.3-2.3 1s-.8 1.8-.8 3.1"/>
		<path id="path3227" d="M419.9 188.7H417l-1.7-6.5c0-.2-.2-.7-.3-1.4s-.2-1.2-.3-1.4c0 .3-.1.8-.2 1.4-.1.7-.2 1.2-.3 1.5l-1.7 6.4h-2.9l-3.2-12.3h2.6l1.6 6.7c.2 1.3.4 2.3.6 3.2 0-.3.1-.8.2-1.4.1-.7.2-1.2.3-1.6l1.8-6.9h2.5l1.8 6.9c.1.3.2.8.3 1.4s.2 1.2.2 1.6c.1-.4.2-.9.3-1.6.1-.6.2-1.2.3-1.6l1.6-6.7h2.6l-3.2 12.3"/>
		<path id="path3229" d="M431.7 188.7h-7.1v-12.3h7.1v2.2h-4.5v2.7h4.2v2.1h-4.2v3.2h4.5v2.1"/>
		<path id="path3231" d="M434.3 176.4h3.8c1.7 0 3 .3 3.8.8s1.1 1.2 1.1 2.3c0 .8-.1 1.4-.5 1.8-.3.5-.8.8-1.3.9v.1c.7.1 1.3.5 1.6.9.4.5.6 1.1.6 1.9 0 1.2-.4 2-1.3 2.7-.8.6-1.9.9-3.3.9h-4.5v-12.3m2.6 4.9h1.5c.7 0 1.2-.1 1.5-.3.3-.3.5-.6.5-1.1s-.2-.8-.5-1c-.4-.2-.9-.3-1.7-.3h-1.3v2.7m0 2.1v3.2h1.7c.7 0 1.2-.2 1.5-.5.4-.2.6-.7.6-1.2 0-1-.8-1.5-2.2-1.5h-1.6"/>
	</g>
</g>
</svg>
